<?xml version="1.0" encoding="UTF-8"?>
<svg width="15px" height="12px" viewBox="0 0 15 12" version="1.1" xmlns="http://www.w3.org/2000/svg" xmlns:xlink="http://www.w3.org/1999/xlink">
    <title>circle-logout 2</title>
    <g id="Xn---Symbols" stroke="none" stroke-width="1" fill="none" fill-rule="evenodd">
        <g id="icon-button/primary/default" transform="translate(-110.000000, -14.000000)" fill="#5a3699" fill-rule="nonzero">
            <g id="Group" transform="translate(15.000000, 8.000000)">
                <g id="circle-logout-2" transform="translate(95.080000, 6.000000)">
                    <g id="circle-logout" transform="translate(7.000000, 6.000000) rotate(-180.000000) translate(-7.000000, -6.000000) ">
                        <path d="M12.5718056,6.67333333 L12.5718056,6.67333333 L2.13208333,6.67333333 C1.78385873,6.66101629 1.50658487,6.3999523 1.50013889,6.07833333 C1.50702161,5.76073242 1.78794686,5.50660313 2.13208333,5.50666665 L2.13208333,5.50666665 L12.5591667,5.50666665 C12.9081799,5.50666665 13.1911111,5.7678339 13.1911111,6.09 C13.1846752,6.40518016 12.9130511,6.66102712 12.5718056,6.67333333 L12.5718056,6.67333333 Z" id="Path"></path>
                        <path d="M5.60777778,11.1883333 C5.43948231,11.187535 5.27744051,11.1293661 5.15277778,11.025 L0.248888889,6.46333333 C0.126699617,6.35747778 0.0573861559,6.20968356 0.0573861559,6.055 C0.0573861559,5.90031644 0.126699617,5.75252222 0.248888889,5.64666667 L5.15277778,1.16666667 C5.27143584,1.05623429 5.43295822,0.994117644 5.60145833,0.994117644 C5.76995844,0.994117644 5.93148083,1.05623429 6.05013889,1.16666667 C6.29253166,1.39744929 6.29253166,1.76421738 6.05013889,1.995 L1.56333333,6.10166667 L6.02486111,10.2433333 C6.26725388,10.474116 6.26725388,10.840884 6.02486111,11.0716667 C5.90338182,11.1515854 5.75688201,11.1925644 5.60777778,11.1883333 L5.60777778,11.1883333 Z" id="Path"></path>
                    </g>
                </g>
            </g>
        </g>
    </g>
</svg>