<!-- Generated by IcoMoon.io -->
<svg version="1.1" xmlns="http://www.w3.org/2000/svg" width="24" height="24" viewBox="0 0 24 24">
<path d="M11.999 0.798c-6.172 0-11.201 5.029-11.201 11.201 0 6.173 5.029 11.201 11.201 11.201 6.173 0 11.201-5.028 11.201-11.201 0-6.172-5.028-11.201-11.201-11.201zM11.999 23.558c-0.001 0-0.002 0-0.003 0-6.381 0-11.555-5.173-11.555-11.555 0-0.002 0-0.003 0-0.005v0c0-0.001 0-0.002 0-0.003 0-6.381 5.173-11.555 11.555-11.555 0.001 0 0.002 0 0.003 0h-0c6.387 0 11.56 5.194 11.56 11.558 0 0.002 0 0.003 0 0.005 0 6.381-5.173 11.555-11.555 11.555-0.002 0-0.004 0-0.006 0h0z"></path>
<path fill="none" stroke="#000" stroke-linejoin="miter" stroke-linecap="butt" stroke-miterlimit="4" stroke-width="0.648" d="M11.999 0.798c-6.172 0-11.201 5.029-11.201 11.201 0 6.173 5.029 11.201 11.201 11.201 6.173 0 11.201-5.028 11.201-11.201 0-6.172-5.028-11.201-11.201-11.201zM11.999 23.558c-0.001 0-0.002 0-0.003 0-6.381 0-11.555-5.173-11.555-11.555 0-0.002 0-0.003 0-0.005v0c0-0.001 0-0.002 0-0.003 0-6.381 5.173-11.555 11.555-11.555 0.001 0 0.002 0 0.003 0h-0c6.387 0 11.56 5.194 11.56 11.558 0 0.002 0 0.003 0 0.005 0 6.381-5.173 11.555-11.555 11.555-0.002 0-0.004 0-0.006 0h0z"></path>
<path d="M0.607 12.165h22.879v-0.357h-22.879z"></path>
<path fill="none" stroke="#000" stroke-linejoin="miter" stroke-linecap="butt" stroke-miterlimit="4" stroke-width="0.648" d="M0.607 12.165h22.879v-0.357h-22.879z"></path>
<path d="M11.833 7.137c-1.218-0.007-2.404-0.119-3.557-0.329l0.124 0.019c-3.145-0.595-5.218-1.811-5.337-1.953l0.023-0.239 0.144 0.144h0.19c0-0.072-0.048-0.119-0.048-0.119 0.071 0.046 0.595 0.38 1.502 0.762 0.81 0.334 2.121 0.81 3.765 1.097 2.812 0.5 7.221 0.573 12.107-1.907l0.167 0.334c-3.385 1.668-6.531 2.193-9.081 2.193z"></path>
<path fill="none" stroke="#000" stroke-linejoin="round" stroke-linecap="butt" stroke-miterlimit="4" stroke-width="0.648" d="M11.833 7.137c-1.218-0.007-2.404-0.119-3.557-0.329l0.124 0.019c-3.145-0.595-5.218-1.811-5.337-1.953l0.023-0.239 0.144 0.144h0.19c0-0.072-0.048-0.119-0.048-0.119 0.071 0.046 0.595 0.38 1.502 0.762 0.81 0.334 2.121 0.81 3.765 1.097 2.812 0.5 7.221 0.573 12.107-1.907l0.167 0.334c-3.385 1.668-6.531 2.193-9.081 2.193z"></path>
<path d="M20.746 19.269c-4.886-2.48-9.27-2.408-12.107-1.907-1.423 0.255-2.686 0.635-3.883 1.141l0.118-0.044c-0.906 0.381-1.43 0.714-1.502 0.762 0 0 0.048-0.048 0.048-0.119h-0.19l-0.119 0.119-0.025-0.238c0.119-0.143 2.193-1.383 5.339-1.954 2.906-0.548 7.435-0.644 12.464 1.907l-0.144 0.334z"></path>
<path fill="none" stroke="#000" stroke-linejoin="bevel" stroke-linecap="butt" stroke-miterlimit="4" stroke-width="0.648" d="M20.746 19.269c-4.886-2.48-9.27-2.408-12.107-1.907-1.423 0.255-2.686 0.635-3.883 1.141l0.118-0.044c-0.906 0.381-1.43 0.714-1.502 0.762 0 0 0.048-0.048 0.048-0.119h-0.19l-0.119 0.119-0.025-0.238c0.119-0.143 2.193-1.383 5.339-1.954 2.906-0.548 7.435-0.644 12.464 1.907l-0.144 0.334z"></path>
<path d="M11.999 0.798c-3.122 0-5.648 5.005-5.648 11.154 0 3.003 0.596 5.839 1.693 7.984 1.072 2.122 2.478 3.265 3.955 3.265 1.478 0 2.885-1.167 3.956-3.265 1.097-2.145 1.692-4.981 1.692-7.984 0-6.148-2.526-11.154-5.648-11.154zM11.999 23.558c-3.312 0-6.006-5.196-6.006-11.607 0-3.050 0.62-5.935 1.717-8.103 1.144-2.193 2.669-3.408 4.289-3.408s3.146 1.215 4.29 3.431c1.12 2.168 1.716 5.053 1.716 8.103 0 6.387-2.692 11.583-6.006 11.583z"></path>
<path fill="none" stroke="#000" stroke-linejoin="miter" stroke-linecap="butt" stroke-miterlimit="4" stroke-width="0.648" d="M11.999 0.798c-3.122 0-5.648 5.005-5.648 11.154 0 3.003 0.596 5.839 1.693 7.984 1.072 2.122 2.478 3.265 3.955 3.265 1.478 0 2.885-1.167 3.956-3.265 1.097-2.145 1.692-4.981 1.692-7.984 0-6.148-2.526-11.154-5.648-11.154zM11.999 23.558c-3.312 0-6.006-5.196-6.006-11.607 0-3.050 0.62-5.935 1.717-8.103 1.144-2.193 2.669-3.408 4.289-3.408s3.146 1.215 4.29 3.431c1.12 2.168 1.716 5.053 1.716 8.103 0 6.387-2.692 11.583-6.006 11.583z"></path>
<path d="M11.809 23.39h0.357v-22.782h-0.357z"></path>
<path fill="none" stroke="#000" stroke-linejoin="miter" stroke-linecap="butt" stroke-miterlimit="4" stroke-width="0.648" d="M11.809 23.39h0.357v-22.782h-0.357z"></path>
</svg>
